<?xml version="1.0" standalone="no"?>
<!DOCTYPE svg PUBLIC "-//W3C//DTD SVG 20010904//EN"
 "http://www.w3.org/TR/2001/REC-SVG-20010904/DTD/svg10.dtd">
<svg version="1.0" xmlns="http://www.w3.org/2000/svg"
 width="190.000000pt" height="114.000000pt" viewBox="0 0 190.000000 114.000000"
 preserveAspectRatio="xMidYMid meet">

<g transform="translate(0.000000,114.000000) scale(0.100000,-0.100000)"
fill="#ffffff" stroke="none">
<path d="M1250 1131 c0 -5 6 -11 13 -14 7 -2 12 -23 12 -57 0 -33 5 -55 13
-57 9 -3 12 12 12 56 0 48 3 61 15 61 8 0 15 5 15 10 0 6 -18 10 -40 10 -22 0
-40 -4 -40 -9z"/>
<path d="M882 1053 c-350 -602 -508 -874 -524 -900 -11 -18 -17 -33 -15 -33 3
0 133 151 288 335 156 184 286 335 290 335 10 0 297 -634 290 -642 -3 -3 -190
-37 -416 -75 l-410 -68 589 -3 c324 -1 591 0 593 2 3 3 -628 1099 -642 1114
-2 2 -21 -27 -43 -65z"/>
<path d="M1330 1053 c0 -24 5 -43 10 -43 6 0 10 14 10 30 0 17 5 30 10 30 6 0
10 -11 10 -25 0 -14 5 -25 10 -25 6 0 10 12 10 26 0 37 24 25 28 -14 4 -38 22
-33 22 6 0 42 -14 54 -64 56 l-46 2 0 -43z"/>
<path d="M690 400 c0 -5 14 -10 30 -10 l30 0 0 -80 c0 -64 3 -80 15 -80 12 0
15 16 15 80 l0 80 30 0 c17 0 30 5 30 10 0 6 -32 10 -75 10 -43 0 -75 -4 -75
-10z"/>
<path d="M895 385 c-56 -56 -18 -155 60 -155 55 0 75 15 75 55 0 35 0 35 -42
34 -39 -1 -40 -2 -13 -8 39 -8 48 -47 14 -59 -51 -19 -99 15 -99 70 0 41 34
70 78 68 52 -3 59 -1 42 10 -29 19 -89 11 -115 -15z"/>
</g>
</svg>
