<?xml version="1.0" standalone="no"?>
<!DOCTYPE svg PUBLIC "-//W3C//DTD SVG 20010904//EN"
 "http://www.w3.org/TR/2001/REC-SVG-20010904/DTD/svg10.dtd">
<svg version="1.0" xmlns="http://www.w3.org/2000/svg"
 width="231.000000pt" height="140.000000pt" viewBox="0 0 231.000000 140.000000"
 preserveAspectRatio="xMidYMid meet">

<g transform="translate(0.000000,140.000000) scale(0.100000,-0.100000)"
fill="#ffffff" stroke="none">
<path d="M1013 1348 c-9 -11 -363 -626 -423 -733 l-22 -40 28 30 c15 17 117
137 227 268 109 131 200 237 202 235 2 -2 56 -118 119 -258 l115 -255 -72 -13
c-40 -7 -184 -32 -322 -56 l-250 -44 458 -1 c251 -1 457 2 457 6 0 9 -480 845
-495 861 -10 11 -14 11 -22 0z"/>
<path d="M1025 810 c-33 -13 -46 -36 -43 -76 7 -79 109 -102 116 -26 2 24 -1
32 -12 32 -10 0 -16 -9 -16 -25 0 -27 -10 -31 -41 -15 -26 15 -26 66 1 80 11
6 25 8 31 5 5 -4 18 -4 27 0 16 6 15 8 -2 21 -22 16 -32 16 -61 4z"/>
<path d="M852 798 c3 -7 14 -14 26 -16 20 -3 22 -10 22 -58 0 -41 4 -54 15
-54 12 0 15 13 15 55 0 48 2 55 20 55 11 0 20 7 20 15 0 12 -13 15 -61 15 -44
0 -60 -3 -57 -12z"/>
<path d="M2208 482 c4 -39 27 -54 44 -28 5 7 8 6 8 -4 0 -13 1 -13 10 0 6 10
10 11 10 3 0 -29 18 -10 23 24 8 44 3 51 -20 32 -11 -9 -14 -10 -9 -1 5 9 -3
12 -31 12 l-39 0 4 -38z m33 -3 c-9 -22 -10 -22 -10 -3 -1 11 2 24 6 27 12 12
14 0 4 -24z"/>
<path d="M450 319 c0 -98 0 -100 23 -97 19 3 23 11 27 53 4 36 9 50 20 50 11
0 16 -14 18 -52 3 -45 6 -53 23 -53 17 0 19 7 19 59 0 66 -14 86 -55 79 -23
-5 -25 -2 -25 28 0 30 -3 34 -25 34 l-25 0 0 -101z"/>
<path d="M1100 386 c0 -34 -1 -35 -34 -29 -27 4 -36 1 -50 -18 -20 -29 -21
-83 -1 -102 10 -10 34 -15 70 -15 l55 1 0 98 c0 92 -1 99 -20 99 -16 0 -20 -7
-20 -34z m-6 -79 c14 -22 -4 -52 -30 -52 -23 0 -31 39 -13 61 14 17 28 14 43
-9z"/>
<path d="M1314 409 c-47 -13 -69 -44 -69 -96 0 -58 36 -93 95 -93 63 0 70 6
70 61 l0 49 -40 0 c-43 0 -57 -23 -20 -33 23 -6 27 -35 5 -43 -28 -11 -65 23
-65 60 0 46 29 70 75 63 30 -5 35 -3 35 14 0 10 -6 19 -14 19 -8 0 -20 2 -28
4 -7 2 -27 0 -44 -5z"/>
<path d="M2160 320 c0 -93 1 -100 20 -100 19 0 20 7 20 100 0 93 -1 100 -20
100 -19 0 -20 -7 -20 -100z"/>
<path d="M0 395 c0 -9 9 -15 25 -15 23 0 24 -3 27 -77 3 -72 5 -78 26 -81 21
-3 22 -1 22 77 0 80 0 81 25 81 16 0 25 6 25 15 0 12 -15 15 -75 15 -60 0 -75
-3 -75 -15z"/>
<path d="M192 344 c-27 -18 -31 -84 -6 -108 20 -21 94 -22 94 -2 0 9 -12 16
-32 18 -53 5 -47 28 7 28 46 0 47 0 41 28 -13 50 -60 67 -104 36z m66 -31 c2
-8 -6 -13 -22 -13 -25 0 -33 10 -19 24 10 10 36 3 41 -11z"/>
<path d="M347 349 c-28 -17 -40 -58 -26 -91 12 -29 40 -42 80 -36 36 5 34 26
-3 30 -29 3 -33 7 -36 35 -3 32 16 48 49 41 8 -2 14 4 14 12 0 18 -52 25 -78
9z"/>
<path d="M707 353 c-17 -16 -5 -29 22 -25 42 6 47 -15 5 -22 -23 -5 -38 -15
-46 -31 -17 -38 3 -53 68 -53 l54 1 0 46 c0 61 -21 91 -64 91 -18 0 -36 -3
-39 -7z m57 -88 c-6 -16 -44 -21 -44 -7 0 14 12 22 31 22 12 0 16 -5 13 -15z"/>
<path d="M840 290 c0 -63 2 -70 20 -70 17 0 20 7 20 44 0 44 19 74 40 61 5 -3
10 -28 10 -56 0 -42 3 -49 20 -49 18 0 20 7 20 58 0 62 -11 82 -45 82 -12 0
-26 -5 -33 -12 -9 -9 -12 -9 -12 0 0 7 -9 12 -20 12 -18 0 -20 -7 -20 -70z"/>
<path d="M1462 344 c-28 -20 -31 -83 -4 -107 23 -21 92 -23 92 -3 0 9 -12 16
-32 18 -53 5 -47 28 7 28 46 0 47 0 41 28 -13 50 -60 67 -104 36z m66 -31 c2
-8 -6 -13 -22 -13 -25 0 -33 10 -19 24 10 10 36 3 41 -11z"/>
<path d="M1590 289 c0 -62 2 -69 20 -69 17 0 20 7 20 44 0 44 19 74 40 61 5
-3 10 -28 10 -56 0 -42 3 -49 20 -49 18 0 20 7 20 59 0 35 -5 62 -12 68 -7 6
-37 10 -65 10 l-53 1 0 -69z"/>
<path d="M1770 340 c-24 -24 -26 -67 -4 -98 13 -19 24 -22 57 -20 53 4 61 26
11 30 -57 5 -56 28 0 28 37 0 46 3 46 18 0 55 -70 82 -110 42z m68 -27 c2 -8
-6 -13 -22 -13 -25 0 -33 10 -19 24 10 10 36 3 41 -11z"/>
<path d="M1910 290 c0 -63 2 -70 20 -70 17 0 20 7 20 46 0 37 4 47 20 51 11 3
20 14 20 24 0 22 -11 24 -28 7 -9 -9 -12 -9 -12 0 0 7 -9 12 -20 12 -18 0 -20
-7 -20 -70z"/>
<path d="M2027 353 c-17 -16 -5 -29 22 -25 43 6 48 -16 6 -24 -41 -7 -61 -34
-45 -63 8 -16 21 -19 65 -19 l55 1 0 46 c0 61 -21 91 -64 91 -18 0 -36 -3 -39
-7z m63 -82 c0 -6 -5 -13 -10 -16 -15 -9 -43 3 -35 15 8 13 45 13 45 1z"/>
<path d="M1126 137 c-12 -9 -17 -23 -14 -42 3 -26 8 -30 36 -33 17 -2 32 1 32
5 0 5 -12 9 -27 8 -23 0 -28 4 -28 25 0 22 4 25 35 23 33 -1 34 0 16 13 -24
17 -28 17 -50 1z"/>
<path d="M1585 100 c0 -22 3 -40 8 -40 4 0 7 18 7 40 0 22 -3 40 -7 40 -5 0
-8 -18 -8 -40z"/>
<path d="M1390 97 c0 -20 3 -37 8 -37 9 0 8 57 -1 67 -4 3 -7 -10 -7 -30z"/>
<path d="M1200 88 c0 -15 5 -28 10 -28 6 0 10 12 10 26 0 14 4 23 10 19 6 -3
10 -2 10 4 0 5 -9 9 -20 8 -15 -1 -20 -8 -20 -29z"/>
<path d="M1260 105 c-17 -21 -5 -45 22 -44 22 2 22 2 2 6 -16 3 -20 9 -17 24
6 21 18 25 26 9 3 -6 4 -5 3 2 -4 18 -22 20 -36 3z"/>
<path d="M1338 113 c17 -7 15 -23 -3 -23 -8 0 -15 -7 -15 -15 0 -8 5 -15 11
-15 5 0 7 5 4 10 -3 6 1 10 10 10 9 0 13 -5 10 -10 -3 -5 -1 -10 4 -10 6 0 11
6 11 14 0 27 -12 46 -29 45 -10 0 -11 -2 -3 -6z"/>
<path d="M1443 113 c-7 -2 -13 -13 -13 -23 0 -25 22 -41 40 -30 12 8 11 10 -7
10 -13 0 -20 6 -19 15 3 23 16 31 27 15 9 -13 10 -13 7 -1 -5 17 -17 22 -35
14z"/>
<path d="M1625 89 c0 -16 5 -29 11 -29 6 0 10 9 10 20 -1 10 4 18 9 17 6 -1
10 -10 9 -19 0 -10 3 -18 8 -18 5 0 8 12 6 27 -2 21 -9 28 -28 30 -21 1 -25
-3 -25 -28z"/>
<path d="M1704 108 c-4 -6 0 -16 9 -23 22 -16 22 -26 0 -19 -15 5 -15 4 -3 -4
30 -22 42 11 13 35 -16 13 -16 13 7 8 19 -5 22 -4 10 4 -19 14 -27 14 -36 -1z"/>
<path d="M1760 73 c0 -24 4 -43 9 -43 5 0 8 15 5 34 -4 37 10 56 28 38 8 -8 7
-16 -2 -27 -9 -11 -9 -15 -1 -15 18 0 25 28 11 44 -6 8 -20 14 -31 13 -16 -1
-19 -9 -19 -44z"/>
<path d="M1835 90 c0 -16 3 -30 8 -30 4 0 7 14 7 30 0 17 -3 30 -7 30 -5 0 -8
-13 -8 -30z"/>
<path d="M1874 88 c1 -32 16 -39 16 -8 0 11 5 20 10 20 6 0 10 4 10 8 0 4 -8
8 -18 8 -14 0 -19 -7 -18 -28z"/>
<path d="M1930 105 c-13 -15 -7 -45 8 -45 5 0 7 11 4 25 -2 15 0 25 7 25 6 0
11 -4 11 -10 0 -5 5 -10 11 -10 8 0 8 5 -1 15 -16 19 -24 19 -40 0z"/>
</g>
</svg>
