<?xml version="1.0" standalone="no"?>
<!DOCTYPE svg PUBLIC "-//W3C//DTD SVG 20010904//EN"
 "http://www.w3.org/TR/2001/REC-SVG-20010904/DTD/svg10.dtd">
<svg version="1.0" xmlns="http://www.w3.org/2000/svg"
 width="254.000000pt" height="154.000000pt" viewBox="0 0 254.000000 154.000000"
 preserveAspectRatio="xMidYMid meet">

<g transform="translate(0.000000,154.000000) scale(0.100000,-0.100000)"
fill="#1a1aff" stroke="none">
<path d="M1082 1498 c-38 -62 -469 -813 -481 -838 -10 -21 -10 -22 1 -9 304
368 503 597 509 586 17 -29 249 -550 249 -557 0 -11 -2 -11 -385 -77 l-340
-58 262 -3 c145 -1 380 -1 522 0 l259 3 -279 484 c-153 266 -282 488 -287 493
-6 6 -18 -4 -30 -24z"/>
<path d="M1095 900 c-53 -21 -60 -88 -13 -123 24 -18 32 -19 68 -8 35 10 40
15 40 41 0 28 -3 30 -35 30 -19 0 -35 -4 -35 -10 0 -5 7 -10 15 -10 20 0 19
-19 0 -26 -21 -9 -45 14 -45 42 0 25 34 51 45 34 10 -16 45 -12 45 5 0 9 -12
20 -26 25 -29 12 -32 12 -59 0z"/>
<path d="M910 886 c0 -8 10 -16 23 -18 19 -3 22 -10 25 -50 3 -40 6 -48 23
-48 16 0 19 7 19 50 0 43 3 50 20 50 11 0 20 7 20 15 0 12 -14 15 -65 15 -50
0 -65 -3 -65 -14z"/>
<path d="M600 335 c0 -98 1 -105 20 -105 16 0 20 7 20 33 0 51 11 77 31 77 16
0 19 -8 19 -56 0 -52 1 -55 23 -52 20 3 22 8 22 60 0 32 -5 62 -11 68 -13 13
-43 15 -66 5 -16 -6 -18 -1 -18 34 0 34 -3 41 -20 41 -19 0 -20 -7 -20 -105z"/>
<path d="M1260 400 c0 -36 -2 -40 -17 -32 -57 30 -107 -59 -67 -116 13 -19 23
-22 72 -20 l57 3 0 100 c0 96 -1 100 -22 103 -21 3 -23 -1 -23 -38z m-5 -100
c0 -41 -27 -53 -45 -21 -14 27 4 64 28 59 12 -2 17 -13 17 -38z"/>
<path d="M2354 427 c-3 -8 -4 -54 -2 -103 3 -84 4 -89 26 -92 22 -3 22 -2 22
102 0 100 -1 106 -20 106 -11 0 -23 -6 -26 -13z"/>
<path d="M140 410 c0 -15 7 -20 25 -20 25 0 25 -1 25 -80 0 -79 0 -80 25 -80
25 0 25 1 25 80 0 79 0 80 25 80 18 0 25 5 25 20 0 18 -7 20 -75 20 -68 0 -75
-2 -75 -20z"/>
<path d="M1459 415 c-56 -30 -63 -125 -12 -165 15 -12 41 -20 64 -20 62 0 69
6 69 61 l0 49 -40 0 c-29 0 -40 -4 -40 -15 0 -8 9 -15 20 -15 13 0 20 -7 20
-20 0 -15 -7 -20 -28 -20 -37 0 -52 17 -52 56 0 43 23 64 71 64 32 0 39 3 39
20 0 17 -7 20 -42 20 -24 -1 -55 -7 -69 -15z"/>
<path d="M360 372 c-32 -10 -50 -36 -50 -72 0 -49 26 -72 76 -68 53 4 60 33 8
33 -21 0 -39 6 -41 13 -3 8 9 12 41 12 41 0 46 2 46 23 0 12 -4 27 -8 34 -10
16 -54 31 -72 25z m40 -43 c0 -5 -12 -9 -26 -9 -22 0 -24 2 -14 14 12 15 40
11 40 -5z"/>
<path d="M504 366 c-75 -33 -51 -136 31 -136 27 0 35 4 35 19 0 14 -6 17 -25
14 -19 -4 -27 0 -36 21 -15 32 2 56 37 56 27 0 33 24 8 34 -9 3 -16 6 -17 6
-1 -1 -16 -7 -33 -14z"/>
<path d="M880 370 c-14 -3 -26 -14 -28 -23 -3 -15 0 -16 23 -7 27 10 45 6 45
-11 0 -5 -9 -9 -21 -9 -36 0 -59 -19 -59 -50 0 -32 12 -39 78 -39 l42 0 0 58
c0 72 -23 96 -80 81z m38 -87 c-4 -22 -38 -30 -38 -10 0 14 13 24 33 26 5 1 7
-7 5 -16z"/>
<path d="M1070 370 c-8 -5 -27 -6 -42 -3 l-28 6 0 -72 c0 -64 2 -71 19 -71 17
0 20 8 23 53 3 44 6 52 23 52 17 0 20 -8 23 -52 3 -45 6 -53 23 -53 18 0 20 6
17 66 -3 57 -6 68 -24 74 -11 5 -27 4 -34 0z"/>
<path d="M1839 369 c-7 -4 -26 -5 -41 -2 l-28 6 0 -72 c0 -64 2 -71 20 -71 17
0 20 7 20 39 0 52 8 71 31 71 16 0 19 -8 19 -56 0 -52 1 -55 23 -52 18 2 23
10 25 44 5 71 -29 118 -69 93z"/>
<path d="M1980 370 c-14 -3 -30 -17 -37 -30 -31 -61 1 -113 65 -108 48 4 58
33 11 33 -50 0 -48 23 3 27 39 3 43 5 40 28 -7 45 -34 62 -82 50z m40 -41 c0
-5 -9 -9 -20 -9 -22 0 -27 16 -7 23 15 5 27 -1 27 -14z"/>
<path d="M2233 372 c-13 -2 -23 -10 -23 -19 0 -11 6 -14 21 -10 24 6 49 -1 49
-14 0 -5 -9 -9 -21 -9 -47 0 -77 -36 -59 -70 8 -15 21 -18 65 -18 l55 1 0 51
c0 73 -25 98 -87 88z m47 -86 c0 -19 -17 -29 -37 -22 -12 5 -13 9 -3 21 16 19
40 19 40 1z"/>
<path d="M1626 348 c-39 -55 -4 -122 62 -116 24 2 38 9 40 19 2 12 -4 15 -26
11 -18 -2 -33 2 -41 12 -12 14 -8 16 33 16 44 0 46 1 46 28 0 38 -17 52 -61
52 -28 0 -42 -6 -53 -22z m72 -16 c2 -7 -7 -12 -23 -12 -24 0 -26 2 -15 15 14
17 31 16 38 -3z"/>
<path d="M2090 299 c0 -62 2 -69 20 -69 16 0 20 7 20 36 0 42 15 74 35 74 8 0
15 6 15 13 0 10 -14 14 -45 15 l-45 0 0 -69z"/>
<path d="M600 140 c-24 -24 -26 -63 -4 -85 19 -18 65 -17 72 3 3 9 -3 11 -21
7 -19 -5 -28 -2 -35 12 -15 28 3 65 29 61 12 -2 24 3 26 10 7 20 -45 14 -67
-8z"/>
<path d="M898 148 c-7 -20 3 -108 12 -108 9 0 19 88 12 108 -2 6 -8 12 -12 12
-4 0 -10 -6 -12 -12z"/>
<path d="M1045 148 c-9 -23 -1 -101 10 -105 6 -2 10 19 9 52 -1 57 -9 79 -19
53z"/>
<path d="M1205 100 c0 -46 3 -60 14 -58 20 4 22 118 1 118 -12 0 -15 -13 -15
-60z"/>
<path d="M1480 140 c0 -5 5 -10 11 -10 5 0 7 5 4 10 -3 6 -8 10 -11 10 -2 0
-4 -4 -4 -10z"/>
<path d="M1400 64 c0 -39 4 -63 10 -59 5 3 7 11 4 19 -3 7 7 18 21 24 34 16
34 55 0 70 -14 7 -28 12 -30 12 -3 0 -5 -30 -5 -66z m40 22 c0 -8 -4 -17 -9
-21 -12 -7 -24 12 -16 25 9 15 25 12 25 -4z"/>
<path d="M690 79 c0 -24 4 -38 10 -34 6 3 10 15 10 25 0 10 5 22 10 25 16 10
11 21 -10 22 -17 2 -20 -4 -20 -38z"/>
<path d="M752 108 c-25 -25 -6 -68 30 -68 10 0 18 5 18 10 0 6 -5 10 -12 10
-9 0 -9 3 0 12 18 18 15 48 -6 48 -10 0 -23 -5 -30 -12z m28 -18 c0 -5 -4 -10
-10 -10 -5 0 -10 5 -10 10 0 6 5 10 10 10 6 0 10 -4 10 -10z"/>
<path d="M833 112 c16 -7 16 -9 -4 -25 -27 -24 -20 -42 20 -44 31 -1 32 0 29
35 -3 33 -6 37 -33 39 -21 2 -25 0 -12 -5z m27 -42 c0 -5 -4 -10 -10 -10 -5 0
-10 5 -10 10 0 6 5 10 10 10 6 0 10 -4 10 -10z"/>
<path d="M942 108 c-25 -25 -6 -68 30 -68 10 0 18 5 18 10 0 6 -5 10 -12 10
-9 0 -9 3 0 12 18 18 15 48 -6 48 -10 0 -23 -5 -30 -12z m28 -18 c0 -5 -5 -10
-11 -10 -5 0 -7 5 -4 10 3 6 8 10 11 10 2 0 4 -4 4 -10z"/>
<path d="M1090 105 c-26 -31 13 -82 44 -56 19 16 21 42 4 59 -16 16 -33 15
-48 -3z m38 -28 c2 -10 -3 -17 -12 -17 -10 0 -16 9 -16 21 0 24 23 21 28 -4z"/>
<path d="M1260 78 c0 -32 3 -39 10 -28 5 8 10 23 10 33 0 9 5 17 10 17 6 0 10
-13 10 -30 0 -16 5 -30 10 -30 11 0 13 39 4 64 -3 9 -17 16 -30 16 -22 0 -24
-4 -24 -42z"/>
<path d="M1335 109 c-4 -5 1 -19 10 -29 15 -17 15 -19 -2 -29 -16 -10 -16 -10
5 -11 27 0 39 24 21 46 -10 13 -10 17 2 25 11 7 9 9 -8 9 -12 0 -25 -5 -28
-11z"/>
<path d="M1510 79 c0 -22 5 -39 10 -39 6 0 10 9 10 19 0 11 7 26 15 35 20 20
19 24 -10 24 -22 0 -25 -5 -25 -39z"/>
<path d="M1582 108 c-20 -20 -15 -56 9 -63 12 -4 26 -2 32 4 8 8 6 11 -7 11
-16 0 -16 1 -1 16 9 9 14 21 12 28 -5 16 -30 19 -45 4z m28 -12 c0 -3 -4 -8
-10 -11 -5 -3 -10 -1 -10 4 0 6 5 11 10 11 6 0 10 -2 10 -4z"/>
<path d="M1480 75 c0 -19 5 -35 10 -35 6 0 10 16 10 35 0 19 -4 35 -10 35 -5
0 -10 -16 -10 -35z"/>
</g>
</svg>

