<?xml version="1.0" standalone="no"?>
<!DOCTYPE svg PUBLIC "-//W3C//DTD SVG 20010904//EN"
 "http://www.w3.org/TR/2001/REC-SVG-20010904/DTD/svg10.dtd">
<svg version="1.0" xmlns="http://www.w3.org/2000/svg"
 width="190.000000pt" height="114.000000pt" viewBox="0 0 190.000000 114.000000"
 preserveAspectRatio="xMidYMid meet">

<g transform="translate(0.000000,114.000000) scale(0.100000,-0.100000)"
fill="#ffcc00" stroke="none">
<path d="M192 693 c-151 -259 -172 -296 -170 -299 2 -1 55 60 118 136 63 76
118 139 121 139 9 1 132 -269 125 -276 -3 -4 -77 -19 -164 -34 l-157 -27 242
-1 242 -1 -71 123 c-153 263 -209 357 -213 357 -2 0 -35 -53 -73 -117z"/>
<path d="M1742 723 c13 -3 16 -11 11 -35 -4 -22 -3 -29 5 -24 7 4 12 18 12 31
0 14 7 25 18 28 9 3 -1 5 -23 5 -22 0 -32 -2 -23 -5z"/>
<path d="M1810 701 c0 -5 -3 -16 -6 -25 -3 -9 -2 -16 4 -16 5 0 13 10 17 23
l8 22 4 -25 5 -24 14 24 c13 25 13 25 14 3 0 -13 6 -23 14 -23 9 0 12 8 8 25
-4 22 -10 25 -43 25 -22 0 -39 -4 -39 -9z"/>
<path d="M790 545 c0 -50 3 -65 14 -65 9 0 16 12 18 32 4 46 28 49 28 4 0 -25
4 -36 15 -36 11 0 15 12 15 44 0 45 -15 61 -45 50 -10 -4 -15 0 -15 15 0 12
-6 21 -15 21 -12 0 -15 -14 -15 -65z"/>
<path d="M1180 590 c0 -12 -5 -17 -14 -14 -36 14 -65 -75 -30 -94 8 -4 28 -6
45 -4 29 4 29 5 29 68 0 50 -3 64 -15 64 -8 0 -15 -9 -15 -20z m0 -65 c0 -26
-14 -33 -25 -15 -9 14 1 40 15 40 5 0 10 -11 10 -25z"/>
<path d="M1269 596 c-72 -35 -26 -142 49 -115 16 6 22 17 22 39 0 25 -4 30
-25 30 -25 0 -33 -14 -15 -25 15 -9 12 -25 -5 -25 -8 0 -19 9 -25 20 -15 28 4
62 32 58 12 -2 23 2 25 8 6 17 -32 23 -58 10z"/>
<path d="M1860 546 c0 -47 4 -65 15 -69 20 -8 22 -1 17 71 -3 45 -8 62 -18 62
-11 0 -14 -16 -14 -64z"/>
<path d="M500 590 c0 -5 7 -10 15 -10 11 0 15 -12 15 -50 0 -38 4 -50 15 -50
11 0 15 12 15 50 0 43 3 50 20 50 11 0 20 5 20 10 0 6 -22 10 -50 10 -27 0
-50 -4 -50 -10z"/>
<path d="M610 560 c-23 -23 -25 -40 -7 -62 12 -17 27 -21 60 -19 24 1 11 21
-14 21 -10 0 -19 5 -19 10 0 6 11 10 25 10 31 0 35 34 6 50 -26 13 -28 13 -51
-10z"/>
<path d="M730 573 c-37 -14 -43 -79 -7 -92 24 -9 47 -4 47 10 0 5 -9 9 -20 9
-15 0 -20 7 -20 25 0 19 5 25 21 25 11 0 19 5 17 12 -5 14 -18 18 -38 11z"/>
<path d="M928 573 c-26 -6 -22 -23 5 -23 21 -1 20 -2 -5 -16 -49 -26 -27 -65
33 -56 25 4 29 8 29 37 0 19 -7 41 -16 49 -16 17 -17 17 -46 9z m27 -63 c-3
-5 -11 -10 -16 -10 -6 0 -7 5 -4 10 3 6 11 10 16 10 6 0 7 -4 4 -10z"/>
<path d="M1038 573 c-26 -4 -28 -8 -28 -49 0 -53 27 -64 32 -12 4 46 28 49 28
4 0 -25 4 -36 15 -36 11 0 15 11 15 38 0 34 -15 64 -29 61 -4 -1 -18 -4 -33
-6z"/>
<path d="M1376 564 c-17 -16 -21 -51 -8 -71 7 -12 25 -16 55 -14 27 2 20 21
-8 21 -14 0 -25 5 -25 10 0 6 11 10 25 10 31 0 35 34 6 50 -25 13 -27 13 -45
-6z m41 -20 c-3 -3 -12 -4 -19 -1 -8 3 -5 6 6 6 11 1 17 -2 13 -5z"/>
<path d="M1493 572 c-32 -3 -33 -5 -33 -48 0 -53 27 -64 32 -12 4 46 28 49 28
4 0 -25 4 -36 15 -36 11 0 15 12 15 44 0 48 -7 53 -57 48z"/>
<path d="M1590 560 c-11 -11 -20 -24 -20 -29 0 -35 36 -66 64 -55 23 9 20 24
-4 24 -11 0 -20 5 -20 10 0 6 11 10 25 10 29 0 33 21 9 44 -20 21 -30 20 -54
-4z m37 -16 c-3 -3 -12 -4 -19 -1 -8 3 -5 6 6 6 11 1 17 -2 13 -5z"/>
<path d="M1708 572 c-26 -3 -28 -7 -28 -48 0 -32 4 -44 15 -44 10 0 15 10 15
30 0 16 7 33 16 38 24 14 13 27 -18 24z"/>
<path d="M1773 573 c-21 -8 -15 -23 10 -23 21 -1 20 -2 -5 -16 -47 -25 -31
-64 22 -56 27 4 30 8 30 43 0 28 -5 41 -19 49 -11 5 -21 10 -23 9 -2 0 -9 -3
-15 -6z m27 -63 c0 -5 -4 -10 -10 -10 -5 0 -10 5 -10 10 0 6 5 10 10 10 6 0
10 -4 10 -10z"/>
<path d="M170 490 c0 -5 5 -10 10 -10 6 0 10 -11 10 -25 0 -14 5 -25 10 -25 6
0 10 11 10 25 0 14 5 25 10 25 6 0 10 5 10 10 0 6 -13 10 -30 10 -16 0 -30 -4
-30 -10z"/>
<path d="M244 486 c-12 -31 1 -51 34 -54 27 -3 32 0 32 17 0 13 -7 21 -16 21
-11 0 -14 -5 -10 -16 4 -10 1 -14 -6 -12 -7 3 -13 13 -13 24 0 14 6 18 24 16
15 -2 21 0 17 7 -10 16 -56 13 -62 -3z"/>
</g>
</svg>
